<svg width="186" height="82" viewBox="0 0 186 82" fill="none" xmlns="http://www.w3.org/2000/svg">
<path d="M54.0801 55.8115H57.292C57.2275 56.8643 56.9375 57.7988 56.4219 58.6152C55.9134 59.4316 55.2008 60.069 54.2842 60.5273C53.3747 60.9857 52.279 61.2148 50.9971 61.2148C49.9945 61.2148 49.0957 61.043 48.3008 60.6992C47.5059 60.3483 46.8255 59.847 46.2598 59.1953C45.7012 58.5436 45.2751 57.7559 44.9814 56.832C44.6878 55.9082 44.541 54.8734 44.541 53.7275V52.6426C44.541 51.4967 44.6914 50.4619 44.9922 49.5381C45.3001 48.6071 45.737 47.8158 46.3027 47.1641C46.8757 46.5124 47.5596 46.0111 48.3545 45.6602C49.1494 45.3092 50.0374 45.1338 51.0186 45.1338C52.3219 45.1338 53.4212 45.3701 54.3164 45.8428C55.2188 46.3154 55.917 46.9671 56.4111 47.7979C56.9124 48.6286 57.2132 49.5739 57.3135 50.6338H54.0908C54.055 50.0036 53.9297 49.4701 53.7148 49.0332C53.5 48.5892 53.1742 48.2562 52.7373 48.0342C52.3076 47.805 51.7347 47.6904 51.0186 47.6904C50.4814 47.6904 50.0124 47.7907 49.6113 47.9912C49.2103 48.1917 48.8737 48.4961 48.6016 48.9043C48.3294 49.3125 48.1253 49.8281 47.9893 50.4512C47.8604 51.0671 47.7959 51.7904 47.7959 52.6211V53.7275C47.7959 54.5368 47.8568 55.2493 47.9785 55.8652C48.1003 56.474 48.2865 56.9896 48.5371 57.4121C48.7949 57.8275 49.1243 58.1426 49.5254 58.3574C49.9336 58.5651 50.4242 58.6689 50.9971 58.6689C51.6702 58.6689 52.2253 58.5615 52.6621 58.3467C53.099 58.1318 53.432 57.8132 53.6611 57.3906C53.8975 56.9681 54.0371 56.4417 54.0801 55.8115ZM58.7207 55.3066V55.0811C58.7207 54.2288 58.8424 53.4447 59.0859 52.7285C59.3294 52.0052 59.6839 51.3786 60.1494 50.8486C60.6149 50.3187 61.1878 49.9069 61.8682 49.6133C62.5485 49.3125 63.3291 49.1621 64.21 49.1621C65.0908 49.1621 65.875 49.3125 66.5625 49.6133C67.25 49.9069 67.8265 50.3187 68.292 50.8486C68.7646 51.3786 69.1227 52.0052 69.3662 52.7285C69.6097 53.4447 69.7314 54.2288 69.7314 55.0811V55.3066C69.7314 56.1517 69.6097 56.9359 69.3662 57.6592C69.1227 58.3753 68.7646 59.002 68.292 59.5391C67.8265 60.069 67.2536 60.4808 66.5732 60.7744C65.8929 61.068 65.1123 61.2148 64.2314 61.2148C63.3506 61.2148 62.5664 61.068 61.8789 60.7744C61.1986 60.4808 60.6221 60.069 60.1494 59.5391C59.6839 59.002 59.3294 58.3753 59.0859 57.6592C58.8424 56.9359 58.7207 56.1517 58.7207 55.3066ZM61.8145 55.0811V55.3066C61.8145 55.7936 61.8574 56.2484 61.9434 56.6709C62.0293 57.0934 62.1654 57.4658 62.3516 57.7881C62.5449 58.1032 62.7956 58.3503 63.1035 58.5293C63.4115 58.7083 63.7874 58.7979 64.2314 58.7979C64.6611 58.7979 65.0299 58.7083 65.3379 58.5293C65.6458 58.3503 65.8929 58.1032 66.0791 57.7881C66.2653 57.4658 66.4014 57.0934 66.4873 56.6709C66.5804 56.2484 66.627 55.7936 66.627 55.3066V55.0811C66.627 54.6084 66.5804 54.1644 66.4873 53.749C66.4014 53.3265 66.2617 52.9541 66.0684 52.6318C65.8822 52.3024 65.6351 52.0446 65.3271 51.8584C65.0192 51.6722 64.6468 51.5791 64.21 51.5791C63.7731 51.5791 63.4007 51.6722 63.0928 51.8584C62.792 52.0446 62.5449 52.3024 62.3516 52.6318C62.1654 52.9541 62.0293 53.3265 61.9434 53.749C61.8574 54.1644 61.8145 54.6084 61.8145 55.0811ZM74.6621 51.8584V61H71.5684V49.377H74.4688L74.6621 51.8584ZM74.2109 54.7803H73.373C73.373 53.9209 73.484 53.1475 73.7061 52.46C73.9281 51.7653 74.2396 51.1745 74.6406 50.6875C75.0417 50.1934 75.5179 49.8174 76.0693 49.5596C76.6279 49.2946 77.251 49.1621 77.9385 49.1621C78.4827 49.1621 78.9805 49.2409 79.4316 49.3984C79.8828 49.556 80.2695 49.8066 80.5918 50.1504C80.9212 50.4941 81.1719 50.9489 81.3438 51.5146C81.5228 52.0804 81.6123 52.7715 81.6123 53.5879V61H78.4971V53.5771C78.4971 53.0615 78.4255 52.6605 78.2822 52.374C78.139 52.0876 77.9277 51.887 77.6484 51.7725C77.3763 51.6507 77.0397 51.5898 76.6387 51.5898C76.2233 51.5898 75.8617 51.6722 75.5537 51.8369C75.2529 52.0016 75.0023 52.2308 74.8018 52.5244C74.6084 52.8109 74.4616 53.1475 74.3613 53.5342C74.2611 53.9209 74.2109 54.3363 74.2109 54.7803ZM89.6582 49.377V51.5684H82.8906V49.377H89.6582ZM84.5664 46.5088H87.6602V57.498C87.6602 57.8346 87.7031 58.0924 87.7891 58.2715C87.8822 58.4505 88.0182 58.5758 88.1973 58.6475C88.3763 58.7119 88.6019 58.7441 88.874 58.7441C89.0674 58.7441 89.2393 58.737 89.3896 58.7227C89.5472 58.7012 89.6797 58.6797 89.7871 58.6582L89.7979 60.9355C89.5329 61.0215 89.2464 61.0895 88.9385 61.1396C88.6305 61.1898 88.2904 61.2148 87.918 61.2148C87.2376 61.2148 86.6432 61.1038 86.1348 60.8818C85.6335 60.6527 85.2467 60.2874 84.9746 59.7861C84.7025 59.2848 84.5664 58.626 84.5664 57.8096V46.5088ZM96.7695 61.2148C95.8672 61.2148 95.0579 61.0716 94.3418 60.7852C93.6257 60.4915 93.0169 60.0869 92.5156 59.5713C92.0215 59.0557 91.6419 58.4577 91.377 57.7773C91.112 57.0898 90.9795 56.3594 90.9795 55.5859V55.1562C90.9795 54.2754 91.1048 53.4697 91.3555 52.7393C91.6061 52.0088 91.9642 51.375 92.4297 50.8379C92.9023 50.3008 93.4753 49.889 94.1484 49.6025C94.8216 49.3089 95.5807 49.1621 96.4258 49.1621C97.2493 49.1621 97.9798 49.2982 98.6172 49.5703C99.2546 49.8424 99.7881 50.2292 100.218 50.7305C100.655 51.2318 100.984 51.8333 101.206 52.5352C101.428 53.2298 101.539 54.0033 101.539 54.8555V56.1445H92.3008V54.082H98.499V53.8457C98.499 53.416 98.4202 53.0329 98.2627 52.6963C98.1123 52.3525 97.8831 52.0804 97.5752 51.8799C97.2673 51.6794 96.8734 51.5791 96.3936 51.5791C95.9854 51.5791 95.6344 51.6686 95.3408 51.8477C95.0472 52.0267 94.8073 52.2773 94.6211 52.5996C94.4421 52.9219 94.306 53.3014 94.2129 53.7383C94.127 54.168 94.084 54.6406 94.084 55.1562V55.5859C94.084 56.0514 94.1484 56.4811 94.2773 56.875C94.4134 57.2689 94.6032 57.609 94.8467 57.8955C95.0973 58.182 95.3981 58.404 95.749 58.5615C96.1071 58.7191 96.5117 58.7979 96.9629 58.7979C97.5215 58.7979 98.0407 58.6904 98.5205 58.4756C99.0075 58.2536 99.4264 57.9206 99.7773 57.4766L101.281 59.1094C101.038 59.4603 100.705 59.7969 100.282 60.1191C99.8669 60.4414 99.3656 60.7064 98.7783 60.9141C98.1911 61.1146 97.5215 61.2148 96.7695 61.2148ZM106.33 51.8584V61H103.236V49.377H106.137L106.33 51.8584ZM105.879 54.7803H105.041C105.041 53.9209 105.152 53.1475 105.374 52.46C105.596 51.7653 105.908 51.1745 106.309 50.6875C106.71 50.1934 107.186 49.8174 107.737 49.5596C108.296 49.2946 108.919 49.1621 109.606 49.1621C110.151 49.1621 110.648 49.2409 111.1 49.3984C111.551 49.556 111.938 49.8066 112.26 50.1504C112.589 50.4941 112.84 50.9489 113.012 51.5146C113.191 52.0804 113.28 52.7715 113.28 53.5879V61H110.165V53.5771C110.165 53.0615 110.093 52.6605 109.95 52.374C109.807 52.0876 109.596 51.887 109.316 51.7725C109.044 51.6507 108.708 51.5898 108.307 51.5898C107.891 51.5898 107.53 51.6722 107.222 51.8369C106.921 52.0016 106.67 52.2308 106.47 52.5244C106.276 52.8109 106.13 53.1475 106.029 53.5342C105.929 53.9209 105.879 54.3363 105.879 54.7803ZM121.326 49.377V51.5684H114.559V49.377H121.326ZM116.234 46.5088H119.328V57.498C119.328 57.8346 119.371 58.0924 119.457 58.2715C119.55 58.4505 119.686 58.5758 119.865 58.6475C120.044 58.7119 120.27 58.7441 120.542 58.7441C120.735 58.7441 120.907 58.737 121.058 58.7227C121.215 58.7012 121.348 58.6797 121.455 58.6582L121.466 60.9355C121.201 61.0215 120.914 61.0895 120.606 61.1396C120.299 61.1898 119.958 61.2148 119.586 61.2148C118.906 61.2148 118.311 61.1038 117.803 60.8818C117.301 60.6527 116.915 60.2874 116.643 59.7861C116.37 59.2848 116.234 58.626 116.234 57.8096V46.5088ZM137.826 55.8115H141.038C140.974 56.8643 140.684 57.7988 140.168 58.6152C139.66 59.4316 138.947 60.069 138.03 60.5273C137.121 60.9857 136.025 61.2148 134.743 61.2148C133.741 61.2148 132.842 61.043 132.047 60.6992C131.252 60.3483 130.572 59.847 130.006 59.1953C129.447 58.5436 129.021 57.7559 128.728 56.832C128.434 55.9082 128.287 54.8734 128.287 53.7275V52.6426C128.287 51.4967 128.438 50.4619 128.738 49.5381C129.046 48.6071 129.483 47.8158 130.049 47.1641C130.622 46.5124 131.306 46.0111 132.101 45.6602C132.896 45.3092 133.784 45.1338 134.765 45.1338C136.068 45.1338 137.167 45.3701 138.062 45.8428C138.965 46.3154 139.663 46.9671 140.157 47.7979C140.659 48.6286 140.959 49.5739 141.06 50.6338H137.837C137.801 50.0036 137.676 49.4701 137.461 49.0332C137.246 48.5892 136.92 48.2562 136.483 48.0342C136.054 47.805 135.481 47.6904 134.765 47.6904C134.228 47.6904 133.758 47.7907 133.357 47.9912C132.956 48.1917 132.62 48.4961 132.348 48.9043C132.076 49.3125 131.871 49.8281 131.735 50.4512C131.606 51.0671 131.542 51.7904 131.542 52.6211V53.7275C131.542 54.5368 131.603 55.2493 131.725 55.8652C131.846 56.474 132.033 56.9896 132.283 57.4121C132.541 57.8275 132.87 58.1426 133.271 58.3574C133.68 58.5651 134.17 58.6689 134.743 58.6689C135.416 58.6689 135.971 58.5615 136.408 58.3467C136.845 58.1318 137.178 57.8132 137.407 57.3906C137.644 56.9681 137.783 56.4417 137.826 55.8115ZM146.227 44.5V61H143.122V44.5H146.227ZM148.289 55.3066V55.0811C148.289 54.2288 148.411 53.4447 148.654 52.7285C148.898 52.0052 149.252 51.3786 149.718 50.8486C150.183 50.3187 150.756 49.9069 151.437 49.6133C152.117 49.3125 152.897 49.1621 153.778 49.1621C154.659 49.1621 155.443 49.3125 156.131 49.6133C156.818 49.9069 157.395 50.3187 157.86 50.8486C158.333 51.3786 158.691 52.0052 158.935 52.7285C159.178 53.4447 159.3 54.2288 159.3 55.0811V55.3066C159.3 56.1517 159.178 56.9359 158.935 57.6592C158.691 58.3753 158.333 59.002 157.86 59.5391C157.395 60.069 156.822 60.4808 156.142 60.7744C155.461 61.068 154.681 61.2148 153.8 61.2148C152.919 61.2148 152.135 61.068 151.447 60.7744C150.767 60.4808 150.19 60.069 149.718 59.5391C149.252 59.002 148.898 58.3753 148.654 57.6592C148.411 56.9359 148.289 56.1517 148.289 55.3066ZM151.383 55.0811V55.3066C151.383 55.7936 151.426 56.2484 151.512 56.6709C151.598 57.0934 151.734 57.4658 151.92 57.7881C152.113 58.1032 152.364 58.3503 152.672 58.5293C152.98 58.7083 153.356 58.7979 153.8 58.7979C154.229 58.7979 154.598 58.7083 154.906 58.5293C155.214 58.3503 155.461 58.1032 155.647 57.7881C155.834 57.4658 155.97 57.0934 156.056 56.6709C156.149 56.2484 156.195 55.7936 156.195 55.3066V55.0811C156.195 54.6084 156.149 54.1644 156.056 53.749C155.97 53.3265 155.83 52.9541 155.637 52.6318C155.451 52.3024 155.203 52.0446 154.896 51.8584C154.588 51.6722 154.215 51.5791 153.778 51.5791C153.341 51.5791 152.969 51.6722 152.661 51.8584C152.36 52.0446 152.113 52.3024 151.92 52.6318C151.734 52.9541 151.598 53.3265 151.512 53.749C151.426 54.1644 151.383 54.6084 151.383 55.0811ZM168.076 58.2178V49.377H171.17V61H168.259L168.076 58.2178ZM168.42 55.833L169.333 55.8115C169.333 56.585 169.243 57.3047 169.064 57.9707C168.885 58.6296 168.617 59.2025 168.259 59.6895C167.901 60.1693 167.45 60.5452 166.905 60.8174C166.361 61.0824 165.72 61.2148 164.982 61.2148C164.417 61.2148 163.894 61.1361 163.414 60.9785C162.941 60.8138 162.533 60.5596 162.189 60.2158C161.853 59.8649 161.588 59.4173 161.395 58.873C161.208 58.3216 161.115 57.6592 161.115 56.8857V49.377H164.209V56.9072C164.209 57.251 164.248 57.541 164.327 57.7773C164.413 58.0137 164.531 58.207 164.682 58.3574C164.832 58.5078 165.007 58.6152 165.208 58.6797C165.416 58.7441 165.645 58.7764 165.896 58.7764C166.533 58.7764 167.034 58.6475 167.399 58.3896C167.772 58.1318 168.033 57.7809 168.184 57.3369C168.341 56.8857 168.42 56.3844 168.42 55.833ZM180.397 58.4648V44.5H183.513V61H180.709L180.397 58.4648ZM173.05 55.3281V55.1025C173.05 54.2145 173.15 53.4089 173.351 52.6855C173.551 51.9551 173.845 51.3285 174.231 50.8057C174.618 50.2829 175.094 49.8783 175.66 49.5918C176.226 49.3053 176.87 49.1621 177.594 49.1621C178.274 49.1621 178.868 49.3053 179.377 49.5918C179.893 49.8783 180.329 50.2865 180.688 50.8164C181.053 51.3392 181.346 51.9587 181.568 52.6748C181.79 53.3838 181.951 54.1608 182.052 55.0059V55.5C181.951 56.3092 181.79 57.0612 181.568 57.7559C181.346 58.4505 181.053 59.0592 180.688 59.582C180.329 60.0977 179.893 60.4987 179.377 60.7852C178.861 61.0716 178.26 61.2148 177.572 61.2148C176.849 61.2148 176.204 61.068 175.639 60.7744C175.08 60.4808 174.607 60.069 174.221 59.5391C173.841 59.0091 173.551 58.3861 173.351 57.6699C173.15 56.9538 173.05 56.1732 173.05 55.3281ZM176.144 55.1025V55.3281C176.144 55.8079 176.179 56.2555 176.251 56.6709C176.33 57.0863 176.455 57.4551 176.627 57.7773C176.806 58.0924 177.035 58.3395 177.314 58.5186C177.601 58.6904 177.948 58.7764 178.356 58.7764C178.886 58.7764 179.323 58.6582 179.667 58.4219C180.011 58.1784 180.272 57.8454 180.451 57.4229C180.637 57.0003 180.745 56.5133 180.773 55.9619V54.5547C180.752 54.1035 180.688 53.6989 180.58 53.3408C180.48 52.9756 180.329 52.6641 180.129 52.4062C179.936 52.1484 179.692 51.9479 179.398 51.8047C179.112 51.6615 178.772 51.5898 178.378 51.5898C177.977 51.5898 177.633 51.6829 177.347 51.8691C177.06 52.0482 176.827 52.2952 176.648 52.6104C176.477 52.9255 176.348 53.2979 176.262 53.7275C176.183 54.1501 176.144 54.6084 176.144 55.1025Z" fill="white"/>
<g filter="url(#filter0_di_179_934)">
<path fill-rule="evenodd" clip-rule="evenodd" d="M52.5857 4C57.7926 4 62.3087 6.95775 64.5454 11.2848C66.4942 10.4451 68.6423 9.97998 70.8989 9.97998C79.7746 9.97998 86.9697 17.1751 86.9697 26.0507C86.9697 34.9263 79.7746 42.1214 70.8989 42.1214C66.8565 42.1214 63.1627 40.6289 60.3385 38.1648C60.1459 38.0756 59.96 37.968 59.7843 37.8427C57.4147 36.1541 54.6208 35.1219 51.6883 34.8787C47.8517 34.5604 44.0266 35.613 40.893 37.8493C37.7594 40.0857 35.5205 43.3609 34.5743 47.0926C33.9205 49.6711 33.9132 52.3521 34.5285 54.904C35.5617 57.0264 36.1414 59.4103 36.1414 61.9295C36.1414 70.8051 28.9463 78.0002 20.0707 78.0002C11.1951 78.0002 4 70.8051 4 61.9295C4 58.2752 5.21971 54.9057 7.27424 52.206C5.22536 49.6476 4 46.4011 4 42.8684C4 35.1823 9.80043 28.8509 17.2627 28.013C16.9004 26.6728 16.7071 25.2631 16.7071 23.8083C16.7071 14.9327 23.9022 7.73762 32.7778 7.73762C35.8976 7.73762 38.8099 8.62665 41.275 10.1652C43.6706 6.45562 47.8414 4 52.5857 4Z" fill="#6663F8"/>
</g>
<defs>
<filter id="filter0_di_179_934" x="0" y="0" width="90.9697" height="82" filterUnits="userSpaceOnUse" color-interpolation-filters="sRGB">
<feFlood flood-opacity="0" result="BackgroundImageFix"/>
<feColorMatrix in="SourceAlpha" type="matrix" values="0 0 0 0 0 0 0 0 0 0 0 0 0 0 0 0 0 0 127 0" result="hardAlpha"/>
<feOffset/>
<feGaussianBlur stdDeviation="2"/>
<feComposite in2="hardAlpha" operator="out"/>
<feColorMatrix type="matrix" values="0 0 0 0 0.12549 0 0 0 0 0.121569 0 0 0 0 0.184314 0 0 0 1 0"/>
<feBlend mode="normal" in2="BackgroundImageFix" result="effect1_dropShadow_179_934"/>
<feBlend mode="normal" in="SourceGraphic" in2="effect1_dropShadow_179_934" result="shape"/>
<feColorMatrix in="SourceAlpha" type="matrix" values="0 0 0 0 0 0 0 0 0 0 0 0 0 0 0 0 0 0 127 0" result="hardAlpha"/>
<feOffset dx="9" dy="6"/>
<feComposite in2="hardAlpha" operator="arithmetic" k2="-1" k3="1"/>
<feColorMatrix type="matrix" values="0 0 0 0 0.843333 0 0 0 0 0.843333 0 0 0 0 0.843333 0 0 0 0.35 0"/>
<feBlend mode="normal" in2="shape" result="effect2_innerShadow_179_934"/>
</filter>
</defs>
</svg>
